<!--?xml version="1.0" encoding="UTF-8" standalone="no"?-->
<svg xmlns:dc="http://purl.org/dc/elements/1.1/" xmlns:cc="http://creativecommons.org/ns#" xmlns:rdf="http://www.w3.org/1999/02/22-rdf-syntax-ns#" xmlns:svg="http://www.w3.org/2000/svg" xmlns="http://www.w3.org/2000/svg" xmlns:sodipodi="http://sodipodi.sourceforge.net/DTD/sodipodi-0.dtd" xmlns:inkscape="http://www.inkscape.org/namespaces/inkscape" version="1.1" id="svg126" width="1024" height="1024" viewBox="0 0 1024 1024" sodipodi:docname="genshi_line.svg" inkscape:version="1.0.1 (1.0.1+r74)" style="">
  <metadata id="metadata132">
    <rdf:rdf>
      <cc:work rdf:about="">
        <dc:format>image/svg+xml</dc:format>
        <dc:type rdf:resource="http://purl.org/dc/dcmitype/StillImage"></dc:type>
        <dc:title></dc:title>
      </cc:work>
    </rdf:rdf>
  </metadata>
  <defs id="defs130"></defs>
  <sodipodi:namedview pagecolor="#ffffff" bordercolor="#666666" borderopacity="1" objecttolerance="10" gridtolerance="10" guidetolerance="10" inkscape:pageopacity="0" inkscape:pageshadow="2" inkscape:window-width="1848" inkscape:window-height="1016" id="namedview128" showgrid="false" inkscape:zoom="0.58281067" inkscape:cx="275.11769" inkscape:cy="575.56472" inkscape:window-x="72" inkscape:window-y="27" inkscape:window-maximized="1" inkscape:current-layer="g134"></sodipodi:namedview>
  <g inkscape:groupmode="layer" inkscape:label="Image" id="g134">
    <path style="fill: none; stroke: rgb(0, 0, 0); stroke-width: 8; stroke-linecap: butt; stroke-linejoin: miter; stroke-opacity: 1; stroke-miterlimit: 4;" d="m 2.1070515,504.80806 115.2638785,-67.46822 -22.643651,-58.8501 8.381131,-57.45368 26.57321,-67.99004 42.34164,-98.11447 55.10448,-66.976557 51.79614,-42.787867 89.9551,-36.2128052 49.69299,-12.4038358 76.6294,-3.4249699 141.57541,-1.1854668 83.90704,15.0869562 96.12379,50.8695365 56.31312,47.762229 67.96121,102.32475 39.36937,91.20978 16.38797,84.57492 1.63864,131.31063 -15.70715,124.83556 -26.67045,63.13902 -60.59796,69.79407 -79.11962,65.65249 -79.74807,43.05659 -86.03705,10.35018 21.30578,-38.64906 34.65975,-28.22405 55.8407,-60.68175 36.86904,-35.30533 29.29624,-38.94235 18.18768,11.75272 0.9729,10.25787 -24.34638,7.59852 -7.57103,3.64287 5.28916,6.02701 h 12.16953 l 18.35388,-6.19137 7.90521,-9.79116 v -14.65089 l -8.54739,-8.52293 -20.09871,-16.72881 28.16928,-41.26945 15.33402,-63.33376 2.57373,-59.38126 -10.55591,-30.52532 18.69194,7.95181 23.91721,23.69761 0.76115,-13.36709 -6.4667,-14.5082 -29.42285,-16.47966 -11.29161,-1.70509 -2.54315,-16.38292 12.50245,-8.25651 6.69154,-13.3312 -5.20936,-5.32126 -10.62368,4.80979 -9.2614,8.62791 -17.01706,-55.49199 -65.70857,-89.78843 -43.56875,-46.73464 32.20928,-7.53362 22.68198,-6.55208 -9.91688,-7.63033 -17.65107,-2.46505 -23.88716,5.3697 -19.76349,5.73238 -29.15998,-21.12861 5.79027,-24.35492 -1.8838,-17.55278 -9.21993,4.94496 -7.71272,25.11834 -25.92732,-15.50985 -68.94972,-33.6545 -68.35294,-16.64261 11.48488,-17.98415 2.83555,-13.86282 -11.2725,2.96532 -15.25547,20.89617 -15.6971,1.04265 -19.66798,-1.47703 -5.24246,-10.65566 -9.1839,-10.82702 -7.55443,-0.56451 -2.32873,11.85829 2.56541,6.94885 -15.03639,6.40122 -38.50988,12.15939 -14.75216,-2.22094 -44.06819,32.19926 -10.40286,-23.04033 -6.75658,0.85802 9.0617,22.68446 -26.56405,22.1295 -31.2845,-3.97679 -12.07077,6.32029 9.17479,5.32419 24.22878,5.86864 -44.63869,36.77871 -53.05432,56.43607 -52.11807,86.85213 7.02483,31.17904 28.78287,-46.54369 38.67708,-65.67786 64.69336,-46.98053 -86.95649,116.51339 -51.14874,110.24467 94.45934,-95.33972 119.06717,-84.15764 42.81326,-29.83007 -49.31876,-22.22116 -17.9466,-26.2344 -8.97718,-27.07608 12.33698,-32.44827" id="path969" class="eVPQTaZo_0"></path>
    <path style="fill: none; stroke: rgb(0, 0, 0); stroke-width: 8; stroke-linecap: butt; stroke-linejoin: miter; stroke-opacity: 1; stroke-miterlimit: 4;" d="m 360.43539,161.80767 -13.29686,8.69637 0.57053,9.32744 14.77245,-7.05029 z" id="path985" class="eVPQTaZo_1"></path>
    <path style="fill: none; stroke: rgb(0, 0, 0); stroke-width: 8; stroke-linecap: butt; stroke-linejoin: miter; stroke-opacity: 1; stroke-miterlimit: 4;" d="m 380.24677,155.31152 -8.76762,17.51166 13.59618,9.48281 9.04268,-29.0444 z" id="path987" class="eVPQTaZo_2"></path>
    <path style="fill: none; stroke: rgb(0, 0, 0); stroke-width: 8; stroke-linecap: butt; stroke-linejoin: miter; stroke-opacity: 1; stroke-miterlimit: 4;" d="m 407.34462,157.19329 -11.19734,16.18753 3.47231,16.02386 8.91646,2.15065 13.86057,-32.66792 z" id="path989" class="eVPQTaZo_3"></path>
    <path style="fill: none; stroke: rgb(0, 0, 0); stroke-width: 8; stroke-linecap: butt; stroke-linejoin: miter; stroke-opacity: 1; stroke-miterlimit: 4;" d="m 439.06132,162.87075 -18.12319,22.64096 -1.35928,14.30984 9.4437,0.14326 17.66278,-30.20993 z" id="path991" class="eVPQTaZo_4"></path>
    <path style="fill: none; stroke: rgb(0, 0, 0); stroke-width: 8; stroke-linecap: butt; stroke-linejoin: miter; stroke-opacity: 1; stroke-miterlimit: 4;" d="m 462.56068,186.87679 118.34315,47.11023 77.31152,45.2601 73.67651,83.21244 78.19782,204.75716 -6.71448,8.20635 -14.48019,-8.77365 -56.13979,-153.4993 -53.96256,-85.70276 -70.3278,-60.42195 -126.95022,-53.89123 -32.29511,-11.99909 z" id="path993" class="eVPQTaZo_5"></path>
    <path style="fill: none; stroke: rgb(0, 0, 0); stroke-width: 8; stroke-linecap: butt; stroke-linejoin: miter; stroke-opacity: 1; stroke-miterlimit: 4;" d="m 793.63541,347.0258 -42.68654,26.33993 21.66509,38.35657 43.57975,-33.87473 z" id="path995" class="eVPQTaZo_6"></path>
    <path style="fill: none; stroke: rgb(0, 0, 0); stroke-width: 8; stroke-linecap: butt; stroke-linejoin: miter; stroke-opacity: 1; stroke-miterlimit: 4;" d="m 818.75306,584.24658 c -23.85583,1.50696 -31.64679,1.81027 -31.64679,1.81027 l 4.02777,14.80404 11.74013,2.61465 10.28206,-3.15406 z" id="path997" class="eVPQTaZo_7"></path>
    <path style="fill: none; stroke: rgb(0, 0, 0); stroke-width: 8; stroke-linecap: butt; stroke-linejoin: miter; stroke-opacity: 1; stroke-miterlimit: 4;" d="m 786.81644,612.97121 30.7033,-2.66493 -2.15698,8.94109 -14.65225,7.17238 -15.24496,-4.17151 z" id="path999" class="eVPQTaZo_8"></path>
    <path style="fill: none; stroke: rgb(0, 0, 0); stroke-width: 8; stroke-linecap: butt; stroke-linejoin: miter; stroke-opacity: 1; stroke-miterlimit: 4;" d="m 784.58766,645.28877 34.04599,-8.70154 -4.50615,11.08341 -16.81531,7.80885 z" id="path1001" class="eVPQTaZo_9"></path>
    <path style="fill: none; stroke: rgb(0, 0, 0); stroke-width: 8; stroke-linecap: butt; stroke-linejoin: miter; stroke-opacity: 1; stroke-miterlimit: 4;" d="m 790.33949,670.21164 37.80597,-10.83529 -10.1395,13.0982 -16.56587,8.09284 z" id="path1003" class="eVPQTaZo_10"></path>
    <path style="fill: none; stroke: rgb(0, 0, 0); stroke-width: 8; stroke-linecap: butt; stroke-linejoin: miter; stroke-opacity: 1; stroke-miterlimit: 4;" d="m 387.41754,273.37092 19.91566,4.63863 -64.02757,56.94893 -21.03328,36.43119 57.61333,-31.6684 32.24596,-32.57917 24.62888,64.38565 10.51986,9.01247 3.86118,-15.87323 -28.69555,-51.85518 17.67144,-17.75616 60.45032,27.03159 -49.13774,75.77272 -40.76803,76.60712 -2.56729,36.40176 45.88926,-73.32275 68.44751,-60.04383 -70.51982,105.64515 -20.93,47.9611 28.84542,-29.68864 -27.55913,81.19936 -2.6317,32.253 117.65508,-141.93969 60.93104,-57.1991 -6.52812,32.01193 -32.79757,56.41595 -16.38876,47.09198 50.28511,-40.06992 44.51207,-46.81671 33.71439,92.65209 7.35504,25.29038 -55.29686,102.43324 68.78105,-51.7464 -23.83663,53.18476 -59.17542,60.508 -60.90135,40.55166 121.64467,-41.27453 87.49724,-58.18027 -40.2268,-18.83426 L 693.23714,588.08025 657.94888,494.8894 611.19726,394.60808 544.07714,338.62749 429.89587,284.8769 387.41754,273.37092" id="path1005" class="eVPQTaZo_11"></path>
    <path style="fill: none; stroke: rgb(0, 0, 0); stroke-width: 8; stroke-linecap: butt; stroke-linejoin: miter; stroke-opacity: 1; stroke-miterlimit: 4;" d="m 712.48012,417.80952 -47.21372,60.10088 9.43932,36.33431 54.4295,-66.63289 z" id="path1007" class="eVPQTaZo_12"></path>
    <path style="fill: none; stroke: rgb(0, 0, 0); stroke-width: 8; stroke-linecap: butt; stroke-linejoin: miter; stroke-opacity: 1; stroke-miterlimit: 4;" d="m 730.98193,462.40381 -47.62963,62.45242 6.1377,23.31191 51.29251,-73.24756 z" id="path1009" class="eVPQTaZo_13"></path>
    <path style="fill: none; stroke: rgb(0, 0, 0); stroke-width: 8; stroke-linecap: butt; stroke-linejoin: miter; stroke-opacity: 1; stroke-miterlimit: 4;" d="m 331.06713,338.64087 -25.05013,14.29321 -19.70091,15.79827 -18.60991,15.48068 -20.39059,19.30883 -17.66179,16.17423 -24.0214,23.13252 -13.77261,20.60933 -9.79402,17.10212 -3.67677,16.51197 -1.65925,23.21519 -0.008,32.03573 11.50185,42.11241 18.91621,45.16569 11.50696,22.77451 13.23889,27.79221 13.34444,21.32572 20.76649,26.09827 19.09899,17.3002 19.9723,13.44417 25.35127,12.47423 28.5399,15.61937 26.81816,11.13483 32.39835,12.43139 29.85344,4.48998 33.6187,-1.55554 25.73659,-6.37394 32.41174,-17.85782 18.14888,-11.43823 32.05866,-27.76716 29.93487,-31.5801 19.0645,-20.65269 19.8213,-25.92563 13.47744,-22.42886" id="path1015" class="eVPQTaZo_14"></path>
    <path style="fill: none; stroke: rgb(0, 0, 0); stroke-width: 8; stroke-linecap: butt; stroke-linejoin: miter; stroke-opacity: 1; stroke-miterlimit: 4;" d="m 0.99335382,560.78984 51.85978218,-43.6591 53.510464,-55.94183 6.94655,18.64632 -2.57302,25.47346 -35.516455,29.87544 -45.122834,62.39655 -28.5371553,26.62045 -0.91215563,41.34363" id="path1017" class="eVPQTaZo_15"></path>
    <path style="fill: none; stroke: rgb(0, 0, 0); stroke-width: 8; stroke-linecap: butt; stroke-linejoin: miter; stroke-opacity: 1; stroke-miterlimit: 4;" d="M 171.04639,464.38374 160.01614,501.14742 105.03558,568.4569 56.188463,635.48926 1.6010812,739.05476 0.49903732,777.34979 18.660489,753.00376 35.994279,789.95261 3.6837419,807.02429 1.2647919,819.24648 42.457142,798.37 l 18.169598,35.48815 18.664174,26.94306 3.084753,7.98493 -53.12326,37.48597 -28.55089263,20.81535 1.76886473,19.90021 48.9075089,-42.75548 34.941055,-30.02403 14.583237,22.43643 -24.087884,12.50644 -18.345676,4.00193 2.256073,15.23618 16.032323,12.97309 L 0,1024 l 18.859949,1.6123 67.732672,-75.64118 13.185611,9.16628 14.753828,-12.72215 20.95798,-30.81817 15.19957,12.08975 22.93169,14.8248 3.96634,5.98119 -65.63992,68.13598 -2.6701,6.3108 21.41173,-1.2084 55.1728,-65.12049 16.86434,11.26855 44.03473,18.35478 6.68935,4.35497 -19.18328,29.04809 10.86326,0.5882 18.15688,-24.75929 32.00874,7.53709 -9.8045,15.9842 12.74985,0.4314 44.66232,-48.12223 49.40196,-49.73512 74.84838,-60.36637 69.54857,-51.19417 37.53259,-13.27447 30.29895,-4.24644 -30.2438,25.57635 -59.01428,41.37345 -56.91144,49.50219 -61.11464,66.25623 -27.88729,44.21498 46.2569,3.4913 -12.82824,-20.7381 41.19684,-46.97631 37.6094,-41.91886 59.70512,-48.7003 12.53439,-17.58666 h 24.45956 l 45.73642,-14.05632 -30.60214,32.76239 -36.51132,44.8927 -35.87025,46.38246 -52.64673,62.5394 50.95683,2.9417 32.38199,-45.62032 30.46932,-69.12095 33.72445,-48.45524 81.50408,-85.19299 -36.74546,57.70657 -42.56826,90.6843 -53.27479,98.58333" id="path1019" class="eVPQTaZo_16"></path>
    <path style="fill: none; stroke: rgb(0, 0, 0); stroke-width: 8; stroke-linecap: butt; stroke-linejoin: miter; stroke-opacity: 1; stroke-miterlimit: 4;" d="m 640.14617,793.56478 -35.18576,30.29405 -15.19149,3.9026" id="path1021" class="eVPQTaZo_17"></path>
    <path style="fill: none; stroke: rgb(0, 0, 0); stroke-width: 8; stroke-linecap: butt; stroke-linejoin: miter; stroke-opacity: 1; stroke-miterlimit: 4;" d="m 687.56107,756.91597 -30.42654,34.68274" id="path1023" class="eVPQTaZo_18"></path>
    <path style="fill: none; stroke: rgb(0, 0, 0); stroke-width: 8; stroke-linecap: butt; stroke-linejoin: miter; stroke-opacity: 1; stroke-miterlimit: 4;" d="m 56.188463,635.48926 47.238907,11.3456 18.06721,18.68269 -16.63991,39.35689 -10.271824,58.67991 -0.762348,94.03992 14.972252,-9.72527 13.08314,-59.78899 8.52649,-28.03391 29.53208,-55.73508" id="path1025" class="eVPQTaZo_19"></path>
    <path style="fill: none; stroke: rgb(0, 0, 0); stroke-width: 8; stroke-linecap: butt; stroke-linejoin: miter; stroke-opacity: 1; stroke-miterlimit: 4;" d="m 124.15644,675.8219 31.9666,12.86032 34.11722,16.03064 9.87037,23.81152 -10.05505,15.16107 -23.40333,1.78961 -14.83875,-9.13807" id="path1027" class="eVPQTaZo_20"></path>
    <path style="fill: none; stroke: rgb(0, 0, 0); stroke-width: 8; stroke-linecap: butt; stroke-linejoin: miter; stroke-opacity: 1; stroke-miterlimit: 4;" d="m 227.98149,696.7196 -17.19013,21.26496 -10.68073,10.53982 -5.01403,25.06978 -4.89151,8.08612 -1.65244,7.79428 -10.44476,4.85753 -1.84215,8.90865 -5.09494,13.93225 1.89214,9.59945 -8.58208,6.70805 -25.97034,16.04256 -8.37792,4.96451 13.26525,16.41614 4.673,11.049 23.4445,-14.55835 -8.5279,23.29845 -0.0205,6.77045 14.47758,8.45811 16.62258,0.64732 17.58179,-34.17413 8.34762,2.94718 7.36211,2.68887 19.32898,-1.16687 19.72101,-14.76779 7.61661,3.57586 14.45552,7.4196 29.89653,-21.49056 34.01651,-34.42121" id="path1029" class="eVPQTaZo_21"></path>
    <path style="fill: none; stroke: rgb(0, 0, 0); stroke-width: 8; stroke-linecap: butt; stroke-linejoin: miter; stroke-opacity: 1; stroke-miterlimit: 4;" d="m 372.60778,932.34718 -9.91664,-43.92003 -10.11455,-29.0805 -36.52562,-17.52113 -10.42037,6.28311 -13.48431,15.76261 14.68692,15.74321" id="path1031" class="eVPQTaZo_22"></path>
    <path style="fill: none; stroke: rgb(0, 0, 0); stroke-width: 8; stroke-linecap: butt; stroke-linejoin: miter; stroke-opacity: 1; stroke-miterlimit: 4;" d="m 362.31685,922.29319 -45.06062,17.01947 -54.34158,4.5514 -45.56117,-7.70854 -35.5024,-7.89384 24.34417,-4.66576 44.97092,-5.92718 39.7789,-12.46602 33.28889,-13.13219 16.39876,-10.51877 -3.79355,-7.99385 -15.47163,-7.38101 -4.8568,2.38534 2.84254,6.64721 -8.27298,6.05204 -24.00505,11.52654 -39.4903,9.09214 -35.72215,5.77158 -33.41179,2.808 -36.21812,-0.42895 -25.52669,-22.75979 5.17053,-29.98143 4.07674,-20.84988" id="path1033" class="eVPQTaZo_23"></path>
    <path style="fill: none; stroke: rgb(0, 0, 0); stroke-width: 8; stroke-linecap: butt; stroke-linejoin: miter; stroke-opacity: 1; stroke-miterlimit: 4;" d="m 211.53091,730.20172 14.34714,30.67077 6.54204,8.17815 7.49118,-0.42103 9.74075,10.36462 3.9336,7.50479 3.80808,12.03477 12.12125,9.48832 28.49116,18.05934 15.25877,8.27389" id="path1035" class="eVPQTaZo_24"></path>
    <path style="fill: none; stroke: rgb(0, 0, 0); stroke-width: 8; stroke-linecap: butt; stroke-linejoin: miter; stroke-opacity: 1; stroke-miterlimit: 4;" d="m 114.95992,905.38561 -38.289194,18.59983 17.891297,21.90383 10.850437,-7.81077 19.68289,-27.40701 z" id="path1037" class="eVPQTaZo_25"></path>
    <path style="fill: none; stroke: rgb(0, 0, 0); stroke-width: 8; stroke-linecap: butt; stroke-linejoin: miter; stroke-opacity: 1; stroke-miterlimit: 4;" d="m 291.66456,392.93063 13.58488,-7.27747 19.22059,-2.64519 h 20.28034 l 21.14655,3.83949 14.79699,13.08047 12.03025,34.32416 4.99796,30.18819 -1.50903,8.67646 -11.14918,7.40553 -5.94991,1.13041 -2.15791,-1.62634 3.30443,-9.39231 -2.35521,-8.47819 -8.65159,-3.43663 -7.307,1.31268 -4.81996,4.25628 -3.02846,5.04294 -1.37725,8.0782 1.79565,6.26948 3.90775,2.94192 h 3.52216 l -7.90527,8.58867 -8.61639,6.43793 -12.36507,5.84817 -11.99383,0.60664 -9.15854,-0.0283 -5.79906,-5.41284 -6.54327,-10.29777 -0.90995,-16.29405 4.79779,-10.96543 6.74775,-13.32435 9.79981,-7.9454 9.78076,-7.57733 7.44425,-4.99622 9.25495,-2.30289 15.67251,-3.03486 7.56081,2.19806 1.95144,2.00956 4.52195,-3.94391 -3.77067,-12.08054 -6.77548,-11.45927 -3.92155,-4.83051 -12.46318,-1.80926 -11.36508,-1.34274 h -9.28916 -6.49011 l -6.31724,2.97379 -5.8805,4.89888 -4.50857,5.98136 -4.99458,6.56012 -3.90822,7.04942 -1.73436,3.2378 -3.54499,0.91961 -4.73372,-3.18457 2.49421,-8.30586 4.82859,-12.08455 -4.48247,-2.45944 -1.35465,-2.52441 z" id="path1095" class="eVPQTaZo_26"></path>
    <path style="fill: none; stroke: rgb(0, 0, 0); stroke-width: 3; stroke-linecap: butt; stroke-linejoin: miter; stroke-opacity: 1; stroke-miterlimit: 4;" d="m 404.70643,428.6674 v 10.24911 l 1.46488,8.90366 3.43862,9.35438 2.50437,1.5724 2.41565,-4.45116 -0.005,-6.96447 -1.69886,-9.97273 -2.61999,-8.2288 z" id="path1097" class="eVPQTaZo_27"></path>
    <path style="fill: none; stroke: rgb(0, 0, 0); stroke-width: 8; stroke-linecap: butt; stroke-linejoin: miter; stroke-opacity: 1; stroke-miterlimit: 4;" d="m 574.58531,482.53974 -10.83862,-2.38074 -6.50048,6.22273 12.51458,7.36514 z" id="path1099" class="eVPQTaZo_28"></path>
    <path style="fill: none; stroke: rgb(0, 0, 0); stroke-width: 8; stroke-linecap: butt; stroke-linejoin: miter; stroke-opacity: 1; stroke-miterlimit: 4;" d="m 606.16006,513.07047 25.99052,16.47449 14.63414,11.5061 14.02835,8.69151 7.29073,3.52192 -7.95301,-15.97675 -8.90911,-6.76826 -13.33376,-10.01799 -11.54489,-9.57244 -8.68096,-6.70257 z" id="path1101" class="eVPQTaZo_29"></path>
    <path style="fill: none; stroke: rgb(0, 0, 0); stroke-width: 3; stroke-linecap: butt; stroke-linejoin: miter; stroke-opacity: 1; stroke-miterlimit: 4;" d="m 509.11746,540.99408 13.36976,3.78415 -3.29396,3.01183 -15.69503,-1.74457 -3.01725,-1.36256 z" id="path1103" class="eVPQTaZo_30"></path>
    <path style="fill: none; stroke: rgb(0, 0, 0); stroke-width: 8; stroke-linecap: butt; stroke-linejoin: miter; stroke-opacity: 1; stroke-miterlimit: 4;" d="m 495.68095,557.70998 21.61204,5.70482 15.19427,5.59535 22.54754,11.58471 11.61638,8.20927 7.65251,15.75815 3.53005,15.22085 1.76293,16.67953 1.22779,13.96194 0.14236,18.70418 -1.20626,10.74473 -3.4199,9.65096 -2.40093,5.44673 -6.40331,3.80998 -4.88848,-2.59443 -2.99728,-2.8558 -5.02527,2.00784 -7.22808,1.18768 -6.16299,0.66818 -2.79147,-6.1935 6.35894,-5.50571 11.69736,-6.36514 6.62663,-5.7878 4.58372,-6.07578 0.64131,-8.35283 0.0874,-16.63967 -2.66128,-18.68818 -4.19216,-4.12875 -3.03286,11.44539 -3.79223,12.09732 -2.33264,3.92369 -0.0306,-7.1842 -4.74071,-2.1535 -4.04128,-2.12738 -6.48393,1.11755 -2.85612,3.76779 -4.74895,5.63785 -0.87237,5.59472 0.6778,5.79046 3.11086,3.68671 4.88331,1.80017 6.27692,-3.61443 -8.87702,7.41575 -9.09277,8.8849 -9.84354,5.17571 -13.63213,4.30918 -11.46865,0.30638 -4.345,-3.68152 -4.42031,-4.36764 -6.15051,-9.01353 1.5226,-13.08179 5.49452,-13.68626 7.02557,-12.11565 5.4952,-8.52575 11.77571,-7.87252 14.3063,-8.35227 5.85882,-1.94196 h 7.48036 7.62122 l 6.10067,0.78129 5.57626,3.98569 3.80019,6.61478 2.2661,3.85352 2.36109,-3.92693 -0.83553,-5.91145 -3.20413,-6.53685 -3.81562,-6.25062 -6.62658,-3.86295 -14.19125,-7.14782 -10.8768,-4.27037 -8.60474,-4.56331 -14.01369,-5.05643 -12.77355,-1.67267 -6.85725,-2.21129 6.21621,-12.24243 z" id="path1105" class="eVPQTaZo_31"></path>
    <path style="fill: none; stroke: rgb(0, 0, 0); stroke-width: 3; stroke-linecap: butt; stroke-linejoin: miter; stroke-opacity: 1; stroke-miterlimit: 4;" d="m 220.14148,468.44713 -12.73466,1.50122 -9.27521,4.00133 -0.68143,3.87678 9.37124,5.95244 9.64716,-1.55132 8.72465,-1.80177 2.68769,-3.1039 v -5.52617 z" id="path1107" class="eVPQTaZo_32"></path>
    <path style="fill: none; stroke: rgb(0, 0, 0); stroke-width: 3; stroke-linecap: butt; stroke-linejoin: miter; stroke-opacity: 1; stroke-miterlimit: 4;" d="m 234.96322,489.85957 -9.80282,0.71088 -7.39022,1.07751 0.36547,6.18837 4.19869,4.11495 8.91149,-0.34446 11.01393,-2.61507 0.81672,-5.1351 z" id="path1109" class="eVPQTaZo_33"></path>
    <path style="fill: none; stroke: rgb(0, 0, 0); stroke-width: 3; stroke-linecap: butt; stroke-linejoin: miter; stroke-opacity: 1; stroke-miterlimit: 4;" d="m 258.51724,510.2669 -12.03129,2.93558 -8.02859,1.67807 -1.45684,5.3011 2.36214,3.00485 5.049,2.52292 12.1795,-3.37287 7.89892,-3.04571 0.6747,-5.51409 z" id="path1111" class="eVPQTaZo_34"></path>
    <path style="fill: none; stroke: rgb(0, 0, 0); stroke-width: 3; stroke-linecap: butt; stroke-linejoin: miter; stroke-opacity: 1; stroke-miterlimit: 4;" d="m 343.31613,555.36289 -10.46119,5.73729 -7.96744,4.89243 0.0888,5.22253 6.04604,1.88218 9.5324,-2.49267 4.46864,-5.50417 4.21803,-6.28885 z" id="path1113" class="eVPQTaZo_35"></path>
    <path style="fill: none; stroke: rgb(0, 0, 0); stroke-width: 3; stroke-linecap: butt; stroke-linejoin: miter; stroke-opacity: 1; stroke-miterlimit: 4;" d="m 476.63874,725.42289 -9.31408,-0.30205 -10.25803,1.83634 -2.44254,4.33925 4.58416,5.61004 4.71487,1.42899 10.1095,-0.71126 7.87589,-1.81368 2.74693,-3.66971 v -3.82598 z" id="path1115" class="eVPQTaZo_36"></path>
    <path style="fill: none; stroke: rgb(0, 0, 0); stroke-width: 3; stroke-linecap: butt; stroke-linejoin: miter; stroke-opacity: 1; stroke-miterlimit: 4;" d="m 499.24856,748.00583 -8.43624,0.65699 -10.24767,1.66899 -3.60443,2.8822 v 4.85958 l 6.16796,1.95003 8.24534,0.0967 9.50315,-2.40836 4.05694,-2.84154 -0.52662,-5.0267 z" id="path1117" class="eVPQTaZo_37"></path>
    <path style="fill: none; stroke: rgb(0, 0, 0); stroke-width: 3; stroke-linecap: butt; stroke-linejoin: miter; stroke-opacity: 1; stroke-miterlimit: 4;" d="m 519.73863,770.99398 h -7.44901 l -8.94213,1.32902 -5.98752,1.98521 -3.14766,3.86492 2.3917,4.26781 5.0258,0.95978 4.86704,0.41695 5.46572,0.90995 6.71956,-2.78096 4.79754,-2.73731 1.15029,-4.61416 z" id="path1119" class="eVPQTaZo_38"></path>
    <path style="fill: none; stroke: rgb(0, 0, 0); stroke-width: 5; stroke-linecap: butt; stroke-linejoin: miter; stroke-opacity: 1; stroke-miterlimit: 4;" d="m 301.41786,667.57339 5.44766,-0.78113 3.65195,-0.60562 4.78169,0.64075 4.79948,0.5672 7.93639,3.45049 2.71544,3.51298 2.48142,3.69074 0.96907,4.57317 2.09582,5.67497 1.06972,5.4396 0.85791,4.90221 -4.43765,3.00146 -3.98758,0.56728 -2.11618,-1.99792 -0.81136,-2.10859 -0.42895,-5.03263 -0.42896,-3.99774 -1.08371,-3.51495 -1.85982,-5.09417 -1.75295,-2.00328 -4.06254,-2.83834 -2.03407,0.3654 h -2.98853 l -3.36365,0.19721 -2.91972,0.405 -2.3042,-0.89282 -0.63334,-1.34312 -1.15085,-1.91619 z" id="path1121" class="eVPQTaZo_39"></path>
  </g>
<style data-made-with="vivus-instant">.eVPQTaZo_0{stroke-dasharray:5431 5433;stroke-dashoffset:5432;animation:eVPQTaZo_draw 522ms linear 0ms forwards;}.eVPQTaZo_1{stroke-dasharray:53 55;stroke-dashoffset:54;animation:eVPQTaZo_draw 5ms linear 522ms forwards;}.eVPQTaZo_2{stroke-dasharray:81 83;stroke-dashoffset:82;animation:eVPQTaZo_draw 7ms linear 527ms forwards;}.eVPQTaZo_3{stroke-dasharray:96 98;stroke-dashoffset:97;animation:eVPQTaZo_draw 9ms linear 535ms forwards;}.eVPQTaZo_4{stroke-dasharray:99 101;stroke-dashoffset:100;animation:eVPQTaZo_draw 9ms linear 544ms forwards;}.eVPQTaZo_5{stroke-dasharray:1125 1127;stroke-dashoffset:1126;animation:eVPQTaZo_draw 108ms linear 554ms forwards;}.eVPQTaZo_6{stroke-dasharray:188 190;stroke-dashoffset:189;animation:eVPQTaZo_draw 18ms linear 662ms forwards;}.eVPQTaZo_7{stroke-dasharray:87 89;stroke-dashoffset:88;animation:eVPQTaZo_draw 8ms linear 681ms forwards;}.eVPQTaZo_8{stroke-dasharray:82 84;stroke-dashoffset:83;animation:eVPQTaZo_draw 7ms linear 689ms forwards;}.eVPQTaZo_9{stroke-dasharray:82 84;stroke-dashoffset:83;animation:eVPQTaZo_draw 7ms linear 697ms forwards;}.eVPQTaZo_10{stroke-dasharray:90 92;stroke-dashoffset:91;animation:eVPQTaZo_draw 8ms linear 705ms forwards;}.eVPQTaZo_11{stroke-dasharray:3161 3163;stroke-dashoffset:3162;animation:eVPQTaZo_draw 304ms linear 714ms forwards;}.eVPQTaZo_12{stroke-dasharray:235 237;stroke-dashoffset:236;animation:eVPQTaZo_draw 22ms linear 1018ms forwards;}.eVPQTaZo_13{stroke-dasharray:208 210;stroke-dashoffset:209;animation:eVPQTaZo_draw 20ms linear 1041ms forwards;}.eVPQTaZo_14{stroke-dasharray:984 986;stroke-dashoffset:985;animation:eVPQTaZo_draw 94ms linear 1061ms forwards;}.eVPQTaZo_15{stroke-dasharray:395 397;stroke-dashoffset:396;animation:eVPQTaZo_draw 38ms linear 1156ms forwards;}.eVPQTaZo_16{stroke-dasharray:3699 3701;stroke-dashoffset:3700;animation:eVPQTaZo_draw 355ms linear 1194ms forwards;}.eVPQTaZo_17{stroke-dasharray:63 65;stroke-dashoffset:64;animation:eVPQTaZo_draw 6ms linear 1550ms forwards;}.eVPQTaZo_18{stroke-dasharray:47 49;stroke-dashoffset:48;animation:eVPQTaZo_draw 4ms linear 1556ms forwards;}.eVPQTaZo_19{stroke-dasharray:443 445;stroke-dashoffset:444;animation:eVPQTaZo_draw 42ms linear 1560ms forwards;}.eVPQTaZo_20{stroke-dasharray:158 160;stroke-dashoffset:159;animation:eVPQTaZo_draw 15ms linear 1603ms forwards;}.eVPQTaZo_21{stroke-dasharray:517 519;stroke-dashoffset:518;animation:eVPQTaZo_draw 49ms linear 1618ms forwards;}.eVPQTaZo_22{stroke-dasharray:171 173;stroke-dashoffset:172;animation:eVPQTaZo_draw 16ms linear 1668ms forwards;}.eVPQTaZo_23{stroke-dasharray:661 663;stroke-dashoffset:662;animation:eVPQTaZo_draw 63ms linear 1685ms forwards;}.eVPQTaZo_24{stroke-dasharray:154 156;stroke-dashoffset:155;animation:eVPQTaZo_draw 14ms linear 1749ms forwards;}.eVPQTaZo_25{stroke-dasharray:130 132;stroke-dashoffset:131;animation:eVPQTaZo_draw 12ms linear 1763ms forwards;}.eVPQTaZo_26{stroke-dasharray:622 624;stroke-dashoffset:623;animation:eVPQTaZo_draw 59ms linear 1776ms forwards;}.eVPQTaZo_27{stroke-dasharray:69 71;stroke-dashoffset:70;animation:eVPQTaZo_draw 6ms linear 1836ms forwards;}.eVPQTaZo_28{stroke-dasharray:47 49;stroke-dashoffset:48;animation:eVPQTaZo_draw 4ms linear 1843ms forwards;}.eVPQTaZo_29{stroke-dasharray:161 163;stroke-dashoffset:162;animation:eVPQTaZo_draw 15ms linear 1847ms forwards;}.eVPQTaZo_30{stroke-dasharray:47 49;stroke-dashoffset:48;animation:eVPQTaZo_draw 4ms linear 1863ms forwards;}.eVPQTaZo_31{stroke-dasharray:754 756;stroke-dashoffset:755;animation:eVPQTaZo_draw 72ms linear 1868ms forwards;}.eVPQTaZo_32{stroke-dasharray:75 77;stroke-dashoffset:76;animation:eVPQTaZo_draw 7ms linear 1940ms forwards;}.eVPQTaZo_33{stroke-dasharray:64 66;stroke-dashoffset:65;animation:eVPQTaZo_draw 6ms linear 1947ms forwards;}.eVPQTaZo_34{stroke-dasharray:70 72;stroke-dashoffset:71;animation:eVPQTaZo_draw 6ms linear 1954ms forwards;}.eVPQTaZo_35{stroke-dasharray:65 67;stroke-dashoffset:66;animation:eVPQTaZo_draw 6ms linear 1961ms forwards;}.eVPQTaZo_36{stroke-dasharray:73 75;stroke-dashoffset:74;animation:eVPQTaZo_draw 7ms linear 1967ms forwards;}.eVPQTaZo_37{stroke-dasharray:69 71;stroke-dashoffset:70;animation:eVPQTaZo_draw 6ms linear 1974ms forwards;}.eVPQTaZo_38{stroke-dasharray:72 74;stroke-dashoffset:73;animation:eVPQTaZo_draw 7ms linear 1981ms forwards;}.eVPQTaZo_39{stroke-dasharray:121 123;stroke-dashoffset:122;animation:eVPQTaZo_draw 11ms linear 1988ms forwards;}@keyframes eVPQTaZo_draw{100%{stroke-dashoffset:0;}}@keyframes eVPQTaZo_fade{0%{stroke-opacity:1;}93.54838709677419%{stroke-opacity:1;}100%{stroke-opacity:0;}}</style></svg>
